# xmcd
#
# Track frame offsets:
#	150
#	13597
#	26254
#	41787
#	58705
#	75656
#	93230
#	102740
#	118582
#	132784
#	146406
#	157743
#	176239
#	188343
#	203926
#	216020
#	223997
#	228599
#	233307
#	238591
#	243084
#	248180
#	253239
#	258532
#	265072
#	271926
#	276514
#	281025
#	285523
#	290163
#	296499
#	301547
#
# Disc length: 4077 seconds
#
# Revision: 0
# Processed by: cddbd v1.5.2PL0 Copyright (c) Steve Scherf et al.
# Submitted via: audiograbber 1.83.01
#
DISCID=d80feb20
DTITLE=Georges Bodossian - Music Shop/31 - Blues Power
DYEAR=2002
DGENRE=Blues
TTITLE0=Blues Power
TTITLE1=Blues Breaker
TTITLE2=Blues System
TTITLE3=Blues School
TTITLE4=Blues Man
TTITLE5=Blues Party
TTITLE6=Mamma Blues
TTITLE7=Blues Line
TTITLE8=Lady Blues
TTITLE9=Blues Lovers
TTITLE10=Groovy Blues
TTITLE11=Blues Machine
TTITLE12=Ragga Blues
TTITLE13=Gold Top Blues
TTITLE14=Tremolo Blues
TTITLE15=Blues Live
TTITLE16=Blues Power (underscore #1)
TTITLE17=Blues Breaker  (underscore #2)
TTITLE18=Blues System  (underscore #3)
TTITLE19=Blues School (underscore #4)
TTITLE20=Blues Man (underscore #5)
TTITLE21=Blues Party (underscore #6)
TTITLE22=Mamma Blues (underscore #7)
TTITLE23=Blues Line (underscore #8)
TTITLE24=Lady Blues (underscore #9)
TTITLE25=Blues Lovers (underscore #10)
TTITLE26=Groovy Blues (underscore #11
TTITLE27=Blues Machine (underscore #12)
TTITLE28=Ragga Blues (underscore #13)
TTITLE29=Gold Top Blues (underscore #14)
TTITLE30=Tremolo Blues (underscore #15)
TTITLE31=Blues Live (underscore #16)
EXTD=
EXTT0=
EXTT1=
EXTT2=
EXTT3=
EXTT4=
EXTT5=
EXTT6=
EXTT7=
EXTT8=
EXTT9=
EXTT10=
EXTT11=
EXTT12=
EXTT13=
EXTT14=
EXTT15=
EXTT16=
EXTT17=
EXTT18=
EXTT19=
EXTT20=
EXTT21=
EXTT22=
EXTT23=
EXTT24=
EXTT25=
EXTT26=
EXTT27=
EXTT28=
EXTT29=
EXTT30=
EXTT31=
PLAYORDER=
